<svg id="Laag_2" data-name="Laag 2" xmlns="http://www.w3.org/2000/svg" viewBox="0 0 13.13 13.3">
  <g id="Laag_1-2" data-name="Laag 1">
    <path d="M1.77.32c.17-.3.55-.41.85-.25.1.06.19.14.25.25l.2.36c.21.38.52.69.89.89l.36.2c.3.17.41.55.25.85-.06.11-.14.19-.25.25l-.36.2c-.38.21-.69.52-.89.89l-.2.36c-.17.3-.55.41-.85.25-.1-.06-.19-.14-.25-.25l-.2-.36c-.21-.38-.52-.69-.89-.89l-.36-.2c-.3-.17-.41-.55-.25-.85.06-.11.14-.19.25-.25l.36-.2c.38-.21.69-.52.89-.89,0,0,.2-.36.2-.36Z" style="fill: #fff;"/>
    <path d="M9.02,3.96c-.18-1.17-1.85-1.19-2.06-.03l-.03.16c-.29,1.56-1.52,2.77-3.09,3.03-1.15.19-1.17,1.83-.03,2.05l.11.02c1.53.3,2.73,1.5,3.03,3.03l.03.17c.23,1.21,1.96,1.21,2.2,0l.02-.13c.3-1.55,1.52-2.76,3.08-3.05,1.18-.22,1.12-1.93-.07-2.11-1.63-.25-2.92-1.52-3.18-3.15h0ZM8.08,10.85c.51-1.15,1.41-2.09,2.54-2.65-1.15-.51-2.08-1.41-2.63-2.55-.52,1.1-1.39,1.98-2.49,2.51,1.15.56,2.07,1.51,2.57,2.69Z" style="fill: #fff; fill-rule: evenodd;"/>
  </g>
</svg>