<svg xmlns:xlink="http://www.w3.org/1999/xlink" xmlns="http://www.w3.org/2000/svg" fill="none" height="48" viewBox="0 0 48 48" width="48"><g fill="#000"><path d="m24 16c-4.4183 0-8 3.5817-8 8s3.5817 8 8 8 8-3.5817 8-8-3.5817-8-8-8zm-5 8c0-2.7614 2.2386-5 5-5s5 2.2386 5 5-2.2386 5-5 5-5-2.2386-5-5z"/><path d="m25.5 0h-3v7.06527c-8.192.71618-14.71855 7.24273-15.43473 15.43473h-7.06527v3h7.06527c.71618 8.192 7.24273 14.7185 15.43473 15.4347v7.0653h3v-7.0653c8.192-.7162 14.7185-7.2427 15.4347-15.4347h7.0653v-3h-7.0653c-.7162-8.192-7.2427-14.71855-15.4347-15.43473zm-15.5 24c0-7.732 6.268-14 14-14s14 6.268 14 14-6.268 14-14 14-14-6.268-14-14z"/></g></svg>