<svg xmlns:xlink="http://www.w3.org/1999/xlink" xmlns="http://www.w3.org/2000/svg" width="14" height="16" viewBox="0 0 14 16" disabled="" class="transition-all duration-300 ease-in-out hover:fill-[#393342]"><path class="transition-all duration-300 ease-in-out fill-[#CCCCCC]" d="M1.0615 0.64157C1.30468 0.466297 1.62886 0.452657 1.8859 0.606882L13.1359 7.35688C13.3618 7.49242 13.5 7.73655 13.5 8C13.5 8.26345 13.3618 8.50758 13.1359 8.64312L1.8859 15.3931C1.62886 15.5473 1.30468 15.5337 1.0615 15.3584C0.818323 15.1832 0.702866 14.8799 0.767893 14.5873L2.06507 8.75L6 8.75C6.41421 8.75 6.75 8.41421 6.75 8C6.75 7.58579 6.41421 7.25 6 7.25L2.06507 7.25L0.767893 1.4127C0.702866 1.12008 0.818323 0.816842 1.0615 0.64157Z" fill="#CCCCCC"></path></svg>